<?xml version="1.0" standalone="no"?>
<!DOCTYPE svg PUBLIC "-//W3C//DTD SVG 20010904//EN"
 "http://www.w3.org/TR/2001/REC-SVG-20010904/DTD/svg10.dtd">
<svg version="1.0" xmlns="http://www.w3.org/2000/svg"
 width="4912.000000pt" height="4900.000000pt" viewBox="0 0 4912.000000 4900.000000"
 preserveAspectRatio="xMidYMid meet">

<g transform="translate(0.000000,4900.000000) scale(0.100000,-0.100000)"
fill="#000000" stroke="none">
<path d="M21752 47400 c-416 -30 -593 -148 -671 -442 -49 -189 -58 -327 -76
-1158 -8 -393 -19 -812 -25 -930 -5 -118 -12 -284 -16 -369 l-7 -154 -121 -57
c-294 -140 -691 -266 -1876 -595 -1009 -280 -1327 -374 -1740 -514 -391 -132
-663 -249 -1170 -502 -507 -254 -787 -410 -1695 -944 -766 -450 -1213 -705
-1239 -705 -16 0 -137 84 -234 162 -134 107 -389 373 -662 688 -501 579 -771
819 -1105 980 -148 71 -216 94 -259 86 -228 -43 -1642 -1317 -2970 -2674
-1013 -1036 -1645 -1764 -1779 -2051 -28 -60 -30 -68 -20 -115 35 -163 204
-453 424 -726 276 -343 637 -709 1218 -1235 138 -125 251 -229 251 -232 0 -2
-16 -43 -36 -91 -78 -191 -244 -477 -564 -972 -332 -515 -395 -620 -622 -1035
-503 -922 -897 -1820 -1209 -2755 -170 -513 -261 -831 -478 -1687 -191 -750
-253 -956 -360 -1201 -35 -80 -41 -87 -72 -94 -55 -11 -506 -47 -744 -59 -134
-6 -526 -9 -1005 -7 l-785 3 -78 -22 c-195 -56 -289 -156 -342 -367 -43 -171
-50 -285 -50 -831 0 -280 6 -854 14 -1275 14 -743 12 -1818 -5 -3150 -9 -652
9 -902 77 -1116 61 -191 163 -295 339 -344 140 -38 286 -44 740 -30 714 23
1195 15 1695 -26 230 -19 247 -22 256 -54 3 -14 40 -146 82 -295 41 -148 150
-549 242 -890 355 -1325 514 -1858 740 -2480 325 -893 503 -1245 1143 -2270
368 -587 449 -720 570 -930 198 -342 349 -654 452 -934 l29 -81 -327 -297
c-417 -380 -673 -624 -861 -821 -386 -406 -609 -702 -715 -949 -52 -122 -53
-134 -15 -190 360 -529 2964 -3164 4224 -4274 272 -239 531 -439 569 -439 7 0
53 20 102 44 309 150 545 355 1022 886 476 529 717 758 1012 962 l95 66 1781
-981 c1395 -770 1821 -1000 1970 -1066 1177 -520 2416 -895 3799 -1150 l310
-57 7 -130 c4 -71 6 -493 6 -939 -2 -844 2 -976 43 -1294 34 -272 105 -573
139 -591 54 -29 384 -80 675 -104 423 -35 642 -40 1685 -40 1954 1 3731 12
3830 23 539 62 720 211 786 642 20 129 21 244 13 1586 -2 435 -1 794 3 798 4
4 202 63 440 131 2548 732 4249 1344 5268 1896 317 171 473 268 933 582 438
298 681 427 1106 587 l154 59 53 -45 c28 -25 244 -242 480 -482 832 -851 1029
-1041 1218 -1172 148 -102 304 -161 426 -161 68 0 182 28 265 65 83 36 260
157 381 258 156 132 455 419 714 688 129 134 784 795 1455 1469 1335 1341
1536 1550 1758 1835 136 176 219 316 263 445 27 79 25 217 -4 288 -59 143
-162 251 -536 561 -146 121 -321 269 -388 328 -160 139 -510 484 -652 643
-127 141 -294 337 -306 360 -14 26 66 245 155 425 86 175 214 391 559 950 347
560 549 918 785 1385 738 1461 1267 3046 1704 5100 l13 65 215 8 c118 4 612 5
1099 2 929 -6 1073 -2 1265 36 318 63 455 237 507 640 17 139 17 1070 0 1844
-11 442 -12 978 -7 2250 7 1651 7 1671 -13 1761 -94 422 -346 623 -862 685
-144 18 -643 15 -1010 -5 -162 -10 -473 -19 -690 -22 l-395 -5 -62 98 c-34 54
-66 117 -73 141 -6 24 -47 161 -90 305 -113 379 -156 540 -305 1142 -230 929
-367 1361 -683 2150 -359 899 -586 1338 -1335 2593 -399 667 -593 1007 -765
1339 l-37 72 46 48 c25 26 230 244 455 483 224 239 573 604 774 810 201 206
394 412 430 457 131 164 180 274 180 401 -1 136 -61 262 -224 467 -104 130
-535 561 -1111 1111 -690 659 -981 949 -1389 1384 -820 874 -1217 1258 -1594
1544 -204 154 -405 271 -539 313 l-53 17 -78 -54 c-235 -162 -376 -283 -648
-555 -127 -126 -339 -345 -472 -485 -306 -323 -515 -518 -767 -714 -86 -68
-103 -77 -129 -72 -44 9 -306 139 -516 256 -102 56 -437 248 -745 425 -1529
880 -1935 1086 -2850 1450 -992 395 -1926 676 -3365 1015 -168 40 -321 76
-341 81 l-35 9 -22 212 c-60 568 -72 820 -82 1633 -9 680 -13 762 -45 887 -40
158 -145 261 -315 312 -137 41 -276 51 -705 49 -225 -1 -552 -6 -725 -12
-1151 -39 -2213 -36 -3385 9 -634 24 -1016 31 -1163 20z m3328 -5490 c840 -46
1844 -174 2856 -364 1567 -296 2897 -702 3599 -1101 115 -65 288 -179 348
-229 l29 -23 -1411 -3503 c-776 -1927 -1413 -3505 -1415 -3508 -10 -9 -253 64
-381 115 -350 139 -609 288 -1345 773 -470 310 -678 440 -703 440 -31 0 -257
-70 -323 -100 -41 -18 -90 -52 -124 -84 -66 -63 -121 -93 -250 -134 -104 -33
-297 -79 -303 -71 -2 2 -237 379 -523 838 -415 668 -526 839 -552 854 -20 12
-43 38 -55 65 -14 29 -35 52 -59 66 l-38 21 -55 -60 c-121 -131 -199 -247
-711 -1048 -432 -679 -534 -831 -550 -829 -10 2 -77 32 -149 67 -105 51 -151
81 -240 156 -105 89 -237 181 -328 229 l-43 23 -154 -52 c-251 -84 -494 -212
-751 -396 -65 -47 -236 -176 -381 -287 -389 -300 -619 -449 -843 -548 -83 -36
-98 -40 -108 -27 -191 237 -340 477 -532 857 -226 449 -404 869 -835 1970
-224 572 -305 761 -633 1480 -521 1143 -715 1609 -873 2090 -96 292 -174 645
-148 669 24 23 714 312 1059 443 1879 717 3828 1126 5750 1207 281 12 963 12
1175 1z m7689 -2125 c146 -222 245 -560 295 -1010 32 -283 40 -475 40 -940 -1
-539 -13 -817 -85 -1930 -37 -573 -50 -3107 -19 -3690 18 -335 53 -590 106
-757 84 -267 208 -424 599 -759 398 -341 668 -592 912 -849 110 -116 656 -626
1612 -1508 795 -734 1447 -1337 1449 -1341 6 -16 -91 -69 -378 -207 -182 -87
-294 -147 -294 -156 1 -7 419 -1256 929 -2776 510 -1519 925 -2765 921 -2769
-3 -4 -398 11 -876 32 -478 21 -872 37 -874 34 -3 -2 -30 -1215 -60 -2694 -31
-1480 -57 -2723 -58 -2763 l-3 -74 -80 52 c-263 172 -491 396 -974 960 -365
426 -487 560 -512 560 -34 0 -326 -89 -510 -156 -593 -214 -1399 -574 -2359
-1054 -1467 -732 -2637 -1424 -3007 -1776 l-83 -79 -1696 -2820 c-933 -1551
-1700 -2823 -1703 -2827 -3 -4 -657 1 -1453 11 -1191 15 -1450 20 -1464 32
-31 25 -217 253 -314 384 -342 461 -721 1080 -1362 2225 -140 250 -358 633
-483 850 -303 527 -412 726 -670 1230 -365 712 -535 1012 -632 1120 -194 214
-738 567 -1610 1043 -1144 626 -2881 1459 -3798 1822 -197 78 -412 151 -471
161 l-41 6 -194 -228 c-388 -456 -592 -680 -771 -847 -195 -183 -361 -305
-486 -357 l-67 -29 -8 147 c-4 81 -32 1324 -63 2762 -30 1438 -56 2615 -57
2617 -2 1 -401 -42 -887 -96 -487 -54 -886 -97 -888 -95 -3 2 1722 5342 1743
5395 4 12 -14 32 -67 72 -81 62 -139 87 -202 87 -54 0 -143 23 -220 58 -87 39
-226 115 -226 123 0 4 1007 971 2238 2148 1829 1751 2246 2154 2289 2216 147
216 233 569 285 1180 17 201 17 1399 0 1740 -25 501 -43 817 -97 1685 -99
1611 -109 1841 -110 2580 0 576 11 920 34 1031 l7 34 27 -67 c123 -308 208
-1099 262 -2438 28 -718 46 -1446 70 -2900 30 -1791 51 -2490 77 -2490 16 0
2352 550 2369 557 14 7 -167 534 -1292 3752 -720 2060 -1306 3747 -1304 3750
10 10 151 -96 224 -169 375 -372 767 -1128 1331 -2570 230 -589 351 -889 460
-1145 56 -132 223 -532 370 -890 615 -1489 858 -2028 1162 -2575 39 -69 72
-127 74 -129 6 -7 183 69 308 132 266 134 460 264 981 657 576 433 789 568
1076 680 154 60 141 61 244 -22 50 -40 164 -145 255 -234 123 -120 180 -169
225 -191 72 -37 214 -83 348 -113 84 -19 100 -21 112 -9 7 8 64 106 127 219
409 732 483 859 643 1100 105 158 217 313 263 363 l26 27 94 -92 c183 -181
294 -336 510 -708 194 -334 268 -452 363 -580 106 -141 264 -310 290 -310 24
0 236 109 349 180 111 69 210 145 345 265 128 114 158 129 236 122 99 -9 161
-42 784 -422 561 -342 1260 -751 1727 -1009 l66 -37 50 61 c166 205 440 777
807 1685 147 363 267 671 536 1373 121 315 246 639 278 720 32 81 114 298 181
482 278 763 454 1221 610 1591 241 571 465 1005 660 1282 87 124 233 273 312
320 34 20 65 37 68 37 3 0 25 -29 49 -65z m932 -599 c273 -58 671 -276 1139
-624 916 -681 2253 -1963 3142 -3013 1109 -1310 2055 -2848 2729 -4437 1362
-3211 1723 -6725 1040 -10113 -480 -2378 -1439 -4590 -2850 -6569 -957 -1343
-2136 -2578 -3441 -3607 -2814 -2217 -6215 -3528 -9770 -3768 -758 -51 -1634
-51 -2385 0 -3010 205 -5897 1190 -8420 2874 -1249 834 -2406 1843 -3402 2966
-2548 2875 -4075 6456 -4353 10205 -27 368 -32 512 -37 1051 -9 944 37 1674
158 2524 465 3273 1847 6362 4127 9225 174 218 232 282 531 581 1095 1095
2475 2218 3127 2542 169 85 330 131 353 103 5 -6 18 -128 30 -271 63 -772 108
-1720 152 -3200 17 -574 23 -2367 10 -2805 -16 -527 -44 -974 -69 -1122 -6
-34 -134 -160 -1327 -1315 -726 -702 -2008 -1943 -2849 -2757 l-1529 -1480 44
-19 c133 -56 331 -83 539 -73 74 4 272 20 440 36 483 45 493 46 486 24 -3 -11
-392 -1276 -866 -2813 -473 -1537 -859 -2796 -857 -2797 1 -1 441 44 976 102
536 57 977 102 978 100 2 -2 30 -1429 63 -3172 33 -1743 59 -3170 60 -3172 1
-7 147 74 225 125 241 159 462 379 900 898 398 471 622 712 845 908 124 109
348 282 405 313 l30 16 2415 -1189 2415 -1189 100 -99 c347 -344 1081 -1552
2225 -3660 772 -1422 1041 -1909 1170 -2115 142 -228 293 -389 422 -453 128
-63 180 -71 458 -69 135 1 879 3 1654 4 l1409 3 86 145 c213 362 876 1464
1376 2290 686 1131 1277 2117 1605 2675 139 237 277 466 308 510 165 238 375
446 635 628 295 207 531 326 1362 687 372 162 731 339 1240 612 890 478 1270
665 1675 823 172 67 417 146 542 175 l98 22 67 -58 c102 -88 385 -374 504
-509 140 -160 316 -373 479 -580 195 -248 256 -317 480 -550 246 -254 309
-326 371 -425 88 -138 97 -149 150 -175 89 -45 269 -106 273 -92 2 6 29 1478
59 3270 30 1792 56 3260 58 3262 2 1 472 -43 1044 -100 572 -56 1042 -101
1044 -99 2 2 -425 1288 -950 2858 -524 1570 -951 2857 -949 2859 3 3 336 -15
740 -39 404 -24 739 -42 744 -41 5 2 -1203 1188 -2685 2636 -1482 1448 -2749
2688 -2815 2755 -104 104 -124 130 -144 181 -113 304 -178 960 -210 2105 -13
457 -13 2192 0 2915 13 745 38 2030 46 2333 l6 242 27 0 c14 0 56 -7 92 -14z"/>
<path d="M32693 38750 c-125 -120 -392 -748 -828 -1950 -607 -1671 -1238
-3641 -1408 -4390 -48 -212 -73 -377 -59 -396 13 -19 1098 -194 1402 -226 184
-19 639 -17 759 4 51 9 96 20 99 23 7 7 93 6603 89 6842 l-2 143 -52 -50z"/>
<path d="M24330 31102 c-340 -228 -1075 -872 -2010 -1761 -984 -935 -2190
-2152 -2190 -2210 0 -16 84 -137 146 -211 72 -86 265 -278 404 -401 160 -142
426 -361 840 -689 743 -589 941 -752 1220 -999 209 -187 497 -482 597 -615
l83 -108 -47 -67 c-172 -244 -385 -501 -673 -811 -256 -275 -356 -400 -458
-570 -203 -337 -364 -798 -568 -1630 -401 -1642 -543 -2168 -955 -3547 -247
-827 -338 -1160 -393 -1433 -136 -679 -78 -1118 229 -1731 148 -294 300 -550
665 -1114 233 -361 296 -463 690 -1115 655 -1082 1016 -1618 1269 -1883 117
-122 113 -124 106 40 -17 386 -60 645 -161 956 -58 178 -114 312 -267 642
-199 431 -265 619 -303 863 -22 143 -22 409 0 567 65 463 180 898 671 2535
139 465 301 1009 359 1210 546 1896 815 3230 865 4300 5 107 10 868 11 1690 1
1256 -3 1637 -20 2385 -20 842 -21 1022 -14 3328 4 1415 3 2437 -2 2437 -5 0
-47 -26 -94 -58z"/>
<path d="M24787 30848 c2 -156 10 -1113 19 -2128 17 -2023 13 -5510 -7 -5870
-15 -282 -16 -1285 -1 -1510 63 -931 178 -1707 403 -2710 177 -786 392 -1558
814 -2925 329 -1066 416 -1360 510 -1735 184 -735 201 -1121 65 -1545 -43
-134 -110 -285 -246 -558 -267 -533 -364 -836 -419 -1302 -19 -164 -31 -475
-19 -475 5 0 46 37 91 83 293 296 885 1166 1705 2502 805 1312 1042 1743 1182
2154 88 257 123 478 112 721 -14 350 -72 589 -401 1655 -419 1361 -631 2144
-925 3425 -252 1098 -374 1510 -551 1863 -114 229 -219 360 -485 608 -296 275
-497 505 -729 838 l-115 163 20 28 c45 64 194 223 316 336 338 318 802 701
1519 1254 160 123 361 279 448 346 110 85 284 241 561 503 222 209 409 387
415 395 15 18 -6 58 -107 206 -234 344 -553 671 -1347 1385 -521 469 -646 589
-1070 1030 -790 824 -1167 1176 -1496 1397 -81 54 -247 148 -262 148 -2 0 -2
-127 0 -282z"/>
<path d="M28998 26362 c-1921 -1593 -2756 -2292 -2752 -2302 13 -40 96 -171
166 -264 186 -249 480 -514 906 -818 75 -54 139 -98 142 -98 10 0 125 205 165
294 52 114 83 232 91 338 7 103 17 129 66 174 76 72 200 141 988 547 916 471
1119 570 1770 864 622 281 775 366 915 507 66 66 90 99 127 176 112 227 132
412 148 1385 11 669 27 1287 36 1408 3 42 2 77 -2 76 -5 0 -1250 -1029 -2766
-2287z"/>
<path d="M17510 28504 c0 -60 11 -680 25 -1379 14 -698 25 -1313 25 -1365 l0
-95 218 -99 c119 -55 573 -275 1007 -489 435 -214 984 -482 1220 -594 932
-444 1337 -663 1496 -811 84 -78 100 -113 110 -247 8 -122 24 -180 75 -271 36
-65 140 -203 221 -292 l48 -53 59 82 c78 108 197 249 377 444 254 276 364 418
479 618 75 132 105 197 93 207 -4 4 -1225 1001 -2713 2215 -1488 1214 -2713
2215 -2722 2223 -17 14 -18 9 -18 -94z"/>
<path d="M15292 26728 c37 -104 1700 -5530 1696 -5533 -6 -7 -190 71 -302 127
-289 145 -551 318 -1081 714 -544 407 -747 542 -1025 683 -119 61 -310 145
-314 139 -2 -1 494 -784 1101 -1738 607 -954 1215 -1910 1350 -2125 462 -729
972 -1503 1832 -2775 361 -535 568 -832 616 -885 62 -69 209 -185 219 -174 13
15 1916 6682 1910 6689 -5 4 -94 41 -199 83 -977 385 -2698 1208 -3491 1669
l-121 71 -32 191 c-80 487 -108 747 -136 1246 -18 326 -21 368 -41 480 -32
180 -118 293 -307 404 -124 73 -211 113 -752 346 -253 108 -563 243 -688 299
-125 55 -230 101 -233 101 -4 0 -4 -6 -2 -12z"/>
<path d="M33920 26694 c-112 -53 -375 -161 -720 -296 -543 -213 -776 -315
-973 -425 -153 -85 -246 -150 -252 -176 -11 -49 -47 -462 -90 -1022 -57 -747
-70 -834 -140 -980 -121 -250 -333 -378 -1535 -928 -986 -452 -2074 -972
-2097 -1004 -37 -49 4 -505 78 -873 91 -456 217 -891 539 -1865 233 -705 247
-749 481 -1565 110 -382 213 -733 229 -780 198 -589 515 -1500 530 -1525 11
-18 26 -37 33 -43 9 -8 457 667 1837 2765 1004 1527 1902 2895 1996 3042 94
146 258 399 365 561 366 553 588 928 713 1203 l36 77 -38 -15 c-69 -29 -286
-147 -437 -238 -197 -118 -500 -322 -810 -544 -137 -99 -365 -262 -505 -363
-365 -262 -883 -603 -894 -589 -1 2 370 1221 825 2709 846 2762 888 2900 885
2900 0 0 -26 -12 -56 -26z"/>
<path d="M24565 19255 c-72 -121 -194 -430 -295 -740 -180 -555 -338 -1175
-734 -2875 -75 -322 -172 -724 -216 -895 -44 -170 -107 -413 -139 -540 -149
-578 -207 -1003 -198 -1445 8 -389 54 -617 178 -879 88 -185 214 -351 353
-461 49 -39 67 -64 133 -187 69 -127 80 -142 108 -147 16 -3 100 -13 185 -23
225 -26 1111 -26 1345 0 88 10 174 20 190 23 28 5 39 20 108 147 64 119 85
149 125 179 114 88 158 147 251 341 141 291 229 524 265 700 19 90 37 378 37
574 0 262 -40 459 -228 1128 -250 887 -293 1056 -523 2035 -416 1768 -655
2606 -856 3000 -63 123 -58 120 -89 65z"/>
</g>
</svg>
